# xmcd
# 
# Track frame offsets:
#     150
#     21005
#     39053
#     62673
#     81334
#     101920
# 
# Disc length: 1591
# 
# Revision: 0
# Processed by: cddbd v1.5.2PL0 Copyright (c) Steve Scherf et al.
# Submitted via: fre:ac v1.0.27
# 
DISCID=41063506
DTITLE=Trinity Site - Ex Inferis
DYEAR=2012
DGENRE=
TTITLE0=Ex Inferis
TTITLE1=Shadow Aspect
TTITLE2=Rope Of Sand
TTITLE3=Forlorn Hope
TTITLE4=Farhelion
TTITLE5=Similar To Nothing
EXTD=
EXTT0=
EXTT1=
EXTT2=
EXTT3=
EXTT4=
EXTT5=
PLAYORDER=
